<svg version="1.1" xmlns="http://www.w3.org/2000/svg" viewBox="0 0 974.0398559570312 677" width="1948.0797119140625" height="1354">
  <!-- svg-source:excalidraw -->
  
  <defs>
    <style class="style-fonts">
      @font-face {
        font-family: "Virgil";
        src: url("https://www.jyshare.com/more/excalidraw//dist/excalidraw-assets/Virgil.woff2");
      }
      @font-face {
        font-family: "Cascadia";
        src: url("https://www.jyshare.com/more/excalidraw//dist/excalidraw-assets/Cascadia.woff2");
      }
      @font-face {
        font-family: "Assistant";
        src: url("https://www.jyshare.com/more/excalidraw//dist/excalidraw-assets/Assistant-Regular.woff2");
      }
    </style>
    
  </defs>
  <rect x="0" y="0" width="974.0398559570312" height="677" fill="#ffffff"></rect><g stroke-linecap="round" transform="translate(17.5 78.5) rotate(0 66.25 44)"><path d="M22 0 C44.77 0.51, 67.94 0.54, 110.5 0 M22 0 C46.67 -1.29, 69.23 -0.37, 110.5 0 M110.5 0 C126.18 -0.13, 133.03 8.99, 132.5 22 M110.5 0 C123.95 -0.94, 131.55 5.33, 132.5 22 M132.5 22 C132.75 39.32, 132.2 55.47, 132.5 66 M132.5 22 C133.62 30.74, 131.72 41.34, 132.5 66 M132.5 66 C134.31 79.86, 124.34 87.64, 110.5 88 M132.5 66 C131.75 80.8, 123.3 89.09, 110.5 88 M110.5 88 C78.97 85.98, 49.94 86.31, 22 88 M110.5 88 C76.12 87.76, 43.86 88.73, 22 88 M22 88 C6.77 87.47, -1.18 81.34, 0 66 M22 88 C6.04 89.68, 2.17 81.35, 0 66 M0 66 C1.25 51.86, 1.05 39.85, 0 22 M0 66 C0.69 51.28, 1.01 36.23, 0 22 M0 22 C-0.78 7.72, 6.2 -1.2, 22 0 M0 22 C0.81 8.37, 7.68 2.1, 22 0" stroke="#1e1e1e" stroke-width="2" fill="none"></path></g><g stroke-linecap="round" transform="translate(329.5 71.5) rotate(0 85 45.25)"><path d="M22.63 0 C65.25 -1.81, 108.65 -0.05, 147.38 0 M22.63 0 C56.61 0.25, 90.41 -0.21, 147.38 0 M147.38 0 C161.48 -0.98, 170.19 9.52, 170 22.63 M147.38 0 C161.21 1.27, 168.73 8.42, 170 22.63 M170 22.63 C170.64 34.82, 170.83 47.77, 170 67.88 M170 22.63 C169.36 34.03, 170.55 44.01, 170 67.88 M170 67.88 C168.25 81.26, 164.33 88.63, 147.38 90.5 M170 67.88 C170.34 83.95, 161.68 89.84, 147.38 90.5 M147.38 90.5 C97.96 90.9, 49.01 93.63, 22.63 90.5 M147.38 90.5 C117.31 89.26, 89.61 89.81, 22.63 90.5 M22.63 90.5 C9.17 91.68, 0.23 81.18, 0 67.88 M22.63 90.5 C8.89 91.46, -0.69 83.47, 0 67.88 M0 67.88 C2.21 58.62, -1.55 46.98, 0 22.63 M0 67.88 C1.12 51.59, 0.58 35.7, 0 22.63 M0 22.63 C1.71 7.23, 6.88 -1.83, 22.63 0 M0 22.63 C0.94 7.7, 6.7 -0.61, 22.63 0" stroke="#1e1e1e" stroke-width="2" fill="none"></path></g><g stroke-linecap="round" transform="translate(335.5 258.75) rotate(0 85 45.25)"><path d="M22.63 0 C59.31 -2.56, 101.2 -0.84, 147.38 0 M22.63 0 C51.82 -1.14, 81.31 -0.79, 147.38 0 M147.38 0 C162.83 -0.22, 170.16 8.64, 170 22.63 M147.38 0 C162.32 0.32, 168.35 7.88, 170 22.63 M170 22.63 C171.59 41.46, 170.49 56.58, 170 67.88 M170 22.63 C170.37 38.34, 170.07 53.11, 170 67.88 M170 67.88 C168.62 84.43, 161.22 89.51, 147.38 90.5 M170 67.88 C170.8 83.65, 162 92.67, 147.38 90.5 M147.38 90.5 C104.37 90.81, 59.15 87.84, 22.63 90.5 M147.38 90.5 C98.55 90.49, 48.12 89.05, 22.63 90.5 M22.63 90.5 C6.68 88.96, 0.43 82.2, 0 67.88 M22.63 90.5 C5.83 92.09, 0.71 83.34, 0 67.88 M0 67.88 C-0.67 56.29, -0.22 50.09, 0 22.63 M0 67.88 C0.79 57.38, 0.95 46.01, 0 22.63 M0 22.63 C-1.64 6.18, 8.1 -1.21, 22.63 0 M0 22.63 C1.13 8.08, 8.54 -0.04, 22.63 0" stroke="#1e1e1e" stroke-width="2" fill="none"></path></g><g transform="translate(33 118.5) rotate(0 43.479957580566406 25)"><text x="0" y="0" font-family="Virgil, Segoe UI Emoji" font-size="20px" fill="#1e1e1e" text-anchor="start" style="white-space: pre;" direction="ltr" dominant-baseline="text-before-edge">plaintext</text><text x="0" y="25" font-family="Virgil, Segoe UI Emoji" font-size="20px" fill="#1e1e1e" text-anchor="start" style="white-space: pre;" direction="ltr" dominant-baseline="text-before-edge">明文</text></g><g transform="translate(354.5 108.5) rotate(0 68.38993072509766 25)"><text x="0" y="0" font-family="Virgil, Segoe UI Emoji" font-size="20px" fill="#1e1e1e" text-anchor="start" style="white-space: pre;" direction="ltr" dominant-baseline="text-before-edge">PostPlaintext</text><text x="0" y="25" font-family="Virgil, Segoe UI Emoji" font-size="20px" fill="#1e1e1e" text-anchor="start" style="white-space: pre;" direction="ltr" dominant-baseline="text-before-edge">次明文</text></g><g transform="translate(353 280) rotate(0 50.659942626953125 25)"><text x="0" y="0" font-family="Virgil, Segoe UI Emoji" font-size="20px" fill="#1e1e1e" text-anchor="start" style="white-space: pre;" direction="ltr" dominant-baseline="text-before-edge">Ciphertext</text><text x="0" y="25" font-family="Virgil, Segoe UI Emoji" font-size="20px" fill="#1e1e1e" text-anchor="start" style="white-space: pre;" direction="ltr" dominant-baseline="text-before-edge">密文</text></g><g stroke-linecap="round"><g transform="translate(154 99.5) rotate(0 88.25 -0.25)"><path d="M0.21 -0.89 C29.68 -1.06, 146.29 -0.22, 175.65 -0.1 M-1.14 1.26 C28.81 0.64, 148.46 -2.02, 177.92 -2.01" stroke="#1e1e1e" stroke-width="2" fill="none"></path></g><g transform="translate(154 99.5) rotate(0 88.25 -0.25)"><path d="M149.86 8.6 C154.01 4.98, 161.85 4.07, 177.92 -2.01 M149.86 8.6 C158.01 5.58, 168.08 1.84, 177.92 -2.01" stroke="#1e1e1e" stroke-width="2" fill="none"></path></g><g transform="translate(154 99.5) rotate(0 88.25 -0.25)"><path d="M149.6 -11.91 C153.96 -11.37, 161.86 -8.1, 177.92 -2.01 M149.6 -11.91 C157.9 -8.25, 168.05 -5.3, 177.92 -2.01" stroke="#1e1e1e" stroke-width="2" fill="none"></path></g></g><mask></mask><g transform="translate(178 69) rotate(0 65.97999572753906 12.5)"><text x="0" y="0" font-family="Virgil, Segoe UI Emoji" font-size="20px" fill="#1e1e1e" text-anchor="start" style="white-space: pre;" direction="ltr" dominant-baseline="text-before-edge">用X填充、分组</text></g><g transform="translate(522 103) rotate(0 90.49996185302734 12.5)"><text x="0" y="0" font-family="Virgil, Segoe UI Emoji" font-size="20px" fill="#1e1e1e" text-anchor="start" style="white-space: pre;" direction="ltr" dominant-baseline="text-before-edge">长度len mod 2 = 0</text></g><g stroke-linecap="round"><g transform="translate(407.5 166) rotate(0 0.25 41.25)"><path d="M-0.2 0.27 C-0.17 14.21, -0.31 68.88, -0.14 82.76 M-1.77 -0.63 C-1.31 13.01, 1.9 67.04, 2.24 80.78" stroke="#1e1e1e" stroke-width="2" fill="none"></path></g><g transform="translate(407.5 166) rotate(0 0.25 41.25)"><path d="M-9.25 53.07 C-5.89 59.53, -2.79 68.67, 2.24 80.78 M-9.25 53.07 C-5.08 64.25, 0.22 74.7, 2.24 80.78" stroke="#1e1e1e" stroke-width="2" fill="none"></path></g><g transform="translate(407.5 166) rotate(0 0.25 41.25)"><path d="M11.25 52.16 C9.05 58.84, 6.59 68.22, 2.24 80.78 M11.25 52.16 C7.41 63.76, 4.7 74.56, 2.24 80.78" stroke="#1e1e1e" stroke-width="2" fill="none"></path></g></g><mask></mask><g transform="translate(433 188) rotate(0 73.03995513916016 12.5)"><text x="0" y="0" font-family="Virgil, Segoe UI Emoji" font-size="20px" fill="#1e1e1e" text-anchor="start" style="white-space: pre;" direction="ltr" dominant-baseline="text-before-edge">key square加密</text></g><g transform="translate(205 10) rotate(0 40 12.5)"><text x="0" y="0" font-family="Virgil, Segoe UI Emoji" font-size="20px" fill="#e03131" text-anchor="start" style="white-space: pre;" direction="ltr" dominant-baseline="text-before-edge">加密过程</text></g><g transform="translate(223 391) rotate(0 40 12.5)"><text x="0" y="0" font-family="Virgil, Segoe UI Emoji" font-size="20px" fill="#e03131" text-anchor="start" style="white-space: pre;" direction="ltr" dominant-baseline="text-before-edge">解密过程</text></g><g stroke-linecap="round" transform="translate(10 436.5) rotate(0 78.25 43.5)"><path d="M21.75 0 C61.93 -0.94, 98.48 1.55, 134.75 0 M21.75 0 C62.86 -1.32, 101.31 -1.33, 134.75 0 M134.75 0 C147.59 0.53, 157.8 6.03, 156.5 21.75 M134.75 0 C147.08 -1.17, 158.27 5.43, 156.5 21.75 M156.5 21.75 C157.17 32.86, 156.03 48.89, 156.5 65.25 M156.5 21.75 C155.97 31.95, 155.66 42.29, 156.5 65.25 M156.5 65.25 C154.7 81.72, 151.04 86.59, 134.75 87 M156.5 65.25 C156.69 80.84, 149.08 87.47, 134.75 87 M134.75 87 C108 87.01, 81.4 85.18, 21.75 87 M134.75 87 C106.97 86.49, 79.85 85.81, 21.75 87 M21.75 87 C7.78 88.91, 0.73 78.03, 0 65.25 M21.75 87 C6.86 86.36, 1.77 79.67, 0 65.25 M0 65.25 C-0.43 51.46, -1.1 41.13, 0 21.75 M0 65.25 C-0.18 53.21, 0.44 42.17, 0 21.75 M0 21.75 C-0.01 6.43, 7.62 0.19, 21.75 0 M0 21.75 C-0.29 4.98, 9.5 0.48, 21.75 0" stroke="#1e1e1e" stroke-width="2" fill="none"></path></g><g transform="translate(46 467) rotate(0 50.659942626953125 25)"><text x="0" y="0" font-family="Virgil, Segoe UI Emoji" font-size="20px" fill="#1e1e1e" text-anchor="start" style="white-space: pre;" direction="ltr" dominant-baseline="text-before-edge">Ciphertext</text><text x="0" y="25" font-family="Virgil, Segoe UI Emoji" font-size="20px" fill="#1e1e1e" text-anchor="start" style="white-space: pre;" direction="ltr" dominant-baseline="text-before-edge">密文</text></g><g stroke-linecap="round"><g transform="translate(182 475.5) rotate(0 72.5 -2)"><path d="M1.17 -0.22 C25.54 -0.83, 121.34 -3.8, 145.3 -4.34 M0.33 -1.38 C24.65 -1.75, 120.55 -2.29, 144.51 -2.99" stroke="#1e1e1e" stroke-width="2" fill="none"></path></g><g transform="translate(182 475.5) rotate(0 72.5 -2)"><path d="M116.49 7.72 C122.48 5.54, 128.58 2.5, 144.51 -2.99 M116.49 7.72 C125.48 3.81, 136.29 0.26, 144.51 -2.99" stroke="#1e1e1e" stroke-width="2" fill="none"></path></g><g transform="translate(182 475.5) rotate(0 72.5 -2)"><path d="M116.16 -12.8 C122.12 -10.37, 128.28 -8.79, 144.51 -2.99 M116.16 -12.8 C125.44 -9.68, 136.36 -6.19, 144.51 -2.99" stroke="#1e1e1e" stroke-width="2" fill="none"></path></g></g><mask></mask><g stroke-linecap="round" transform="translate(337 446) rotate(0 90.5 42.5)"><path d="M21.25 0 C54.1 0.5, 85.39 -0.11, 159.75 0 M21.25 0 C67.42 -0.14, 112.89 -0.88, 159.75 0 M159.75 0 C172.09 1.46, 181.42 5.28, 181 21.25 M159.75 0 C173.55 -1.55, 181.51 9.15, 181 21.25 M181 21.25 C181.87 31.36, 179.14 38.92, 181 63.75 M181 21.25 C180.21 37.95, 179.93 52.67, 181 63.75 M181 63.75 C180.7 78.67, 175.17 85.34, 159.75 85 M181 63.75 C181.38 78.22, 173.05 85.33, 159.75 85 M159.75 85 C112.75 86.4, 65.34 84.23, 21.25 85 M159.75 85 C122.14 84.95, 84.95 84.63, 21.25 85 M21.25 85 C7.77 86.45, 0.16 76.45, 0 63.75 M21.25 85 C8.46 84.11, -1.14 75.69, 0 63.75 M0 63.75 C1.45 49.21, -1.53 34.74, 0 21.25 M0 63.75 C1.03 52.77, 0.86 40.12, 0 21.25 M0 21.25 C1.36 7.11, 5.72 -0.63, 21.25 0 M0 21.25 C0.84 6.62, 8.02 2.26, 21.25 0" stroke="#1e1e1e" stroke-width="2" fill="none"></path></g><g transform="translate(347.5 451) rotate(0 80 37.5)"><text x="80" y="0" font-family="Virgil, Segoe UI Emoji" font-size="20px" fill="#1e1e1e" text-anchor="middle" style="white-space: pre;" direction="ltr" dominant-baseline="text-before-edge">PrePlaintext</text><text x="80" y="25" font-family="Virgil, Segoe UI Emoji" font-size="20px" fill="#1e1e1e" text-anchor="middle" style="white-space: pre;" direction="ltr" dominant-baseline="text-before-edge">预明文，也就是次</text><text x="80" y="50" font-family="Virgil, Segoe UI Emoji" font-size="20px" fill="#1e1e1e" text-anchor="middle" style="white-space: pre;" direction="ltr" dominant-baseline="text-before-edge">明文</text></g><g stroke-linecap="round"><g transform="translate(420.59228099666143 526.5) rotate(0 -4.296140498330715 29.5)"><path d="M0.6 -1.11 C-1.02 8.64, -7.95 49.12, -9.61 59.28 M-0.54 0.92 C-1.81 10.23, -6.38 47.8, -7.44 57.3" stroke="#1e1e1e" stroke-width="2" fill="none"></path></g><g transform="translate(420.59228099666143 526.5) rotate(0 -4.296140498330715 29.5)"><path d="M-14.29 28.29 C-13.83 35.58, -9.38 44.99, -7.44 57.3 M-14.29 28.29 C-11.2 38.98, -8.86 49.79, -7.44 57.3" stroke="#1e1e1e" stroke-width="2" fill="none"></path></g><g transform="translate(420.59228099666143 526.5) rotate(0 -4.296140498330715 29.5)"><path d="M5.96 30.67 C0.1 37.32, -1.76 45.99, -7.44 57.3 M5.96 30.67 C1.55 40.38, -3.59 50.32, -7.44 57.3" stroke="#1e1e1e" stroke-width="2" fill="none"></path></g></g><mask></mask><g stroke-linecap="round" transform="translate(322.5 591) rotate(0 98.75 38)"><path d="M19 0 C62.89 0.51, 106.18 1.31, 178.5 0 M19 0 C60.09 -0.99, 99.8 -0.65, 178.5 0 M178.5 0 C193.14 -1.91, 198.08 4.38, 197.5 19 M178.5 0 C191.74 0.47, 199.47 4.16, 197.5 19 M197.5 19 C196.26 30.58, 196.96 43.22, 197.5 57 M197.5 19 C197.27 30.63, 197.15 42.61, 197.5 57 M197.5 57 C198.48 70.38, 192.86 75.71, 178.5 76 M197.5 57 C195.26 70.93, 189.53 76.19, 178.5 76 M178.5 76 C135.58 75.58, 93.96 78.91, 19 76 M178.5 76 C119.77 74.52, 59.15 75.96, 19 76 M19 76 C4.5 74.01, -0.24 70.16, 0 57 M19 76 C7.05 74.15, 1.94 70.11, 0 57 M0 57 C0.5 42.23, 1.94 31.12, 0 19 M0 57 C0.76 47, 0.3 38, 0 19 M0 19 C-1.21 7.17, 6.73 1, 19 0 M0 19 C-0.64 4.42, 5.47 -0.04, 19 0" stroke="#1e1e1e" stroke-width="2" fill="none"></path></g><g transform="translate(190 437) rotate(0 73.03995513916016 12.5)"><text x="0" y="0" font-family="Virgil, Segoe UI Emoji" font-size="20px" fill="#1e1e1e" text-anchor="start" style="white-space: pre;" direction="ltr" dominant-baseline="text-before-edge">key square解密</text></g><g transform="translate(531 444.5) rotate(0 168.83987426757812 50)"><text x="0" y="0" font-family="Virgil, Segoe UI Emoji" font-size="20px" fill="#1e1e1e" text-anchor="start" style="white-space: pre;" direction="ltr" dominant-baseline="text-before-edge">实际上因为不存在字母j,</text><text x="0" y="25" font-family="Virgil, Segoe UI Emoji" font-size="20px" fill="#1e1e1e" text-anchor="start" style="white-space: pre;" direction="ltr" dominant-baseline="text-before-edge">我们的key square的对应关系</text><text x="0" y="50" font-family="Virgil, Segoe UI Emoji" font-size="20px" fill="#1e1e1e" text-anchor="start" style="white-space: pre;" direction="ltr" dominant-baseline="text-before-edge">是一一映射，</text><text x="0" y="75" font-family="Virgil, Segoe UI Emoji" font-size="20px" fill="#1e1e1e" text-anchor="start" style="white-space: pre;" direction="ltr" dominant-baseline="text-before-edge">所以PostPlaintext = PrePlaintext.</text></g><g transform="translate(379 597) rotate(0 43.479957580566406 25)"><text x="0" y="0" font-family="Virgil, Segoe UI Emoji" font-size="20px" fill="#1e1e1e" text-anchor="start" style="white-space: pre;" direction="ltr" dominant-baseline="text-before-edge">plaintext</text><text x="0" y="25" font-family="Virgil, Segoe UI Emoji" font-size="20px" fill="#1e1e1e" text-anchor="start" style="white-space: pre;" direction="ltr" dominant-baseline="text-before-edge">明文</text></g><g transform="translate(449 555) rotate(0 257.5199279785156 25)"><text x="0" y="0" font-family="Virgil, Segoe UI Emoji" font-size="20px" fill="#1e1e1e" text-anchor="start" style="white-space: pre;" direction="ltr" dominant-baseline="text-before-edge">我们假定PrePlaintext中的X都是填充的，直接去掉即可。</text><text x="0" y="25" font-family="Virgil, Segoe UI Emoji" font-size="20px" fill="#1e1e1e" text-anchor="start" style="white-space: pre;" direction="ltr" dominant-baseline="text-before-edge"></text></g></svg>